# xmcd
# 
# Track frame offsets:
#     150
#     9150
#     25344
#     43648
#     63528
#     78713
#     99109
#     119084
#     137252
#     152325
#     173039
#     189327
#     212555
#     232930
#     250723
#     273198
#     292303
#     312128
#     329566
# 
# Disc length: 4699
# 
# Revision: 1
# Processed by: cddbd v1.5.2PL0 Copyright (c) Steve Scherf et al.
# Submitted via: fre:ac v1.0.31
# 
DISCID=fa125913
DTITLE=La Cliqua - Le Meilleur - Les Classiques
DYEAR=2007
DGENRE=Hip-Hop
TTITLE0=Intro (Daddy Lord C)
TTITLE1=3 Rounds (ft Mam's et Esprit d'Ebene)
TTITLE2=Les Quartiers Chauffent
TTITLE3=Les Incorruptibles
TTITLE4=Nouvel Impact (Raphael)
TTITLE5=Les Jaloux Jaloux (Daddy Lord C)
TTITLE6=Rap Contact 2 (ft Khondo et Egosyst)
TTITLE7=Jackpot
TTITLE8=Legendaire (La Squadra - Daddy Lord C et Rocca)
TTITLE9=Freaky Flow (Daddy Lord C)
TTITLE10=Worldwide (Raphael ft Shyheim et Loucha)
TTITLE11=Assez (La Squadra - Daddy Lord C et Rocca)
TTITLE12=Né Pour Ca
TTITLE13=La D'Ou L'On Vient (La Squadra - Daddy Lord C et Rocca)
TTITLE14=1 Poingt d'Honneur (Daddy Lord C)
TTITLE15=Pas Le Temps De Jouer (Daddy Lord C)
TTITLE16=Les Jeunes De L'Univers (Rocca)
TTITLE17=Le Hip Hop Mon Royaume (Rocca)
TTITLE18=Pas De Place Pour Les Traitres
EXTD=
EXTT0=
EXTT1=
EXTT2=
EXTT3=
EXTT4=
EXTT5=
EXTT6=
EXTT7=
EXTT8=
EXTT9=
EXTT10=
EXTT11=
EXTT12=
EXTT13=
EXTT14=
EXTT15=
EXTT16=
EXTT17=
EXTT18=
PLAYORDER=
